# xmcd
#
# Track frame offsets:
#	150
#	28912
#	58375
#	88655
#	117227
#	149565
#	187560
#	220307
#	251570
#	280327
#
# Disc length: 4118 seconds
#
# Revision: 7
# Processed by: cddbd v1.5.2PL0 Copyright (c) Steve Scherf et al.
# Submitted via: EasyCDDAExtractor 15.3.0.1
#
DISCID=9910140a
DTITLE=Madonna - You Can Dance
DYEAR=1987
DGENRE=Pop
TTITLE0=Spotlight
TTITLE1=Holiday
TTITLE2=Everybody
TTITLE3=Physical Attraction
TTITLE4=Over And Over
TTITLE5=Into The Groove
TTITLE6=Where's The Party
TTITLE7=Holiday (Dub Version)
TTITLE8=Into The Groove (Dub Version)
TTITLE9=Where's The Party (Dub Version)
EXTD=
EXTT0=
EXTT1=
EXTT2=
EXTT3=
EXTT4=
EXTT5=
EXTT6=
EXTT7=
EXTT8=
EXTT9=
PLAYORDER=
